<svg width="24" height="24" viewBox="0 0 24 24" fill="none" xmlns="http://www.w3.org/2000/svg">
<path d="M14.0416 16.2219L13.5749 17.8284C13.1036 19.4508 12.868 20.262 12.5051 20.4675C12.1917 20.6449 11.8083 20.6449 11.4949 20.4675C11.132 20.262 10.8964 19.4508 10.4251 17.8284L9.95843 16.2219L9.95843 16.2219C9.77921 15.6049 9.68961 15.2965 9.52195 15.043C9.37356 14.8186 9.18142 14.6264 8.95705 14.478C8.70355 14.3104 8.39507 14.2208 7.77812 14.0416L7.77811 14.0416L6.1716 13.5749C4.5492 13.1036 3.738 12.868 3.5325 12.5051C3.35507 12.1917 3.35507 11.8083 3.5325 11.4949C3.738 11.132 4.5492 10.8964 6.1716 10.4251L7.77811 9.95843L7.77812 9.95843C8.39507 9.77922 8.70355 9.68961 8.95705 9.52195C9.18142 9.37356 9.37356 9.18142 9.52195 8.95705C9.68961 8.70355 9.77921 8.39507 9.95843 7.77812L9.95843 7.77811L10.4251 6.1716C10.8964 4.5492 11.132 3.738 11.4949 3.5325C11.8083 3.35507 12.1917 3.35507 12.5051 3.5325C12.868 3.738 13.1036 4.5492 13.5749 6.1716L14.0416 7.77811L14.0416 7.77812C14.2208 8.39507 14.3104 8.70355 14.478 8.95705C14.6264 9.18142 14.8186 9.37356 15.043 9.52195C15.2965 9.68961 15.6049 9.77921 16.2219 9.95843L16.2219 9.95843L17.8284 10.4251C19.4508 10.8964 20.262 11.132 20.4675 11.4949C20.6449 11.8083 20.6449 12.1917 20.4675 12.5051C20.262 12.868 19.4508 13.1036 17.8284 13.5749L16.2219 14.0416L16.2219 14.0416C15.6049 14.2208 15.2965 14.3104 15.043 14.478C14.8186 14.6264 14.6264 14.8186 14.478 15.043C14.3104 15.2965 14.2208 15.6049 14.0416 16.2219L14.0416 16.2219Z" stroke="white" stroke-width="1.5"/>
<path d="M5.42282 5.94949L5.01129 7.20368C4.92849 7.45603 4.57151 7.45603 4.48871 7.20368L4.07718 5.94949C3.99537 5.70017 3.79983 5.50463 3.55051 5.42282L2.29632 5.01129C2.04397 4.92849 2.04397 4.57151 2.29632 4.48871L3.55051 4.07718C3.79983 3.99537 3.99537 3.79983 4.07718 3.55051L4.48871 2.29632C4.57151 2.04397 4.92849 2.04397 5.01129 2.29632L5.42282 3.55051C5.50463 3.79983 5.70017 3.99537 5.94949 4.07718L7.20368 4.48871C7.45603 4.57151 7.45603 4.92849 7.20368 5.01129L5.94949 5.42282C5.70017 5.50463 5.50463 5.70017 5.42282 5.94949Z" fill="white"/>
<path d="M19.9228 20.4495L19.5113 21.7037C19.4285 21.956 19.0715 21.956 18.9887 21.7037L18.5772 20.4495C18.4954 20.2002 18.2998 20.0046 18.0505 19.9228L16.7963 19.5113C16.544 19.4285 16.544 19.0715 16.7963 18.9887L18.0505 18.5772C18.2998 18.4954 18.4954 18.2998 18.5772 18.0505L18.9887 16.7963C19.0715 16.544 19.4285 16.544 19.5113 16.7963L19.9228 18.0505C20.0046 18.2998 20.2002 18.4954 20.4495 18.5772L21.7037 18.9887C21.956 19.0715 21.956 19.4285 21.7037 19.5113L20.4495 19.9228C20.2002 20.0046 20.0046 20.2002 19.9228 20.4495Z" fill="white"/>
</svg>
